<svg width="68" height="68" viewBox="0 0 68 68" fill="none" xmlns="http://www.w3.org/2000/svg">
<path d="M68 64.1373H52.7665C51.6418 64.1373 50.7217 63.8647 50.006 63.3194C49.3244 62.7741 48.7792 62.1266 48.3702 61.3769L38.9132 45.1209C38.7428 45.7003 38.5383 46.2456 38.2997 46.7568C38.0612 47.268 37.8056 47.7451 37.5329 48.1881L29.7628 61.3769C29.2857 62.0585 28.7234 62.6889 28.0759 63.2683C27.4284 63.8476 26.5934 64.1373 25.571 64.1373H11.4621C11.4621 64.1373 29.2516 40.2731 29.2516 36.7374C29.2516 33.2017 27.2761 29.537 24.738 25.2771C22.1999 21.0171 19.3608 16.4042 13.6436 12.2131C9.02431 8.82686 2.96278 5.86812 0.805113 4.85664C0.55473 4.73927 0.599786 4.38195 0.873542 4.34288C2.99879 4.03957 8.71714 3.48445 14.8555 5.10161C22.6191 7.14695 28.0091 11.711 32.4272 16.3845C36.8453 21.0581 40.7535 28.7117 40.7535 28.7117C40.9579 28.0982 41.2135 27.5019 41.5202 26.9225C41.827 26.3091 42.1678 25.6956 42.5426 25.0822L49.2904 13.2737C49.7675 12.5239 50.2616 11.9786 50.7728 11.6379C51.3181 11.2971 51.9826 11.1267 52.7665 11.1267H67.2843C67.2843 11.1267 50.2105 31.4422 50.2105 36.0217C50.2105 40.6012 68 64.1373 68 64.1373Z" fill="#21ECAE"/>
</svg>
